<?xml version="1.0" encoding="UTF-8" standalone="no"?>
<!DOCTYPE svg PUBLIC "-//W3C//DTD SVG 1.1//EN"
 "http://www.w3.org/Graphics/SVG/1.1/DTD/svg11.dtd">
<!-- Generated by graphviz version 5.0.0 (20220707.1540)
 -->
<!-- Pages: 1 -->
<svg width="541pt" height="260pt"
 viewBox="0.00 0.00 541.11 260.00" xmlns="http://www.w3.org/2000/svg" xmlns:xlink="http://www.w3.org/1999/xlink">
<g id="graph0" class="graph" transform="scale(1 1) rotate(0) translate(4 256)">
<polygon fill="white" stroke="transparent" points="-4,4 -4,-256 537.11,-256 537.11,4 -4,4"/>
<!-- [root] google_storage_bucket.auto&#45;expire (expand) -->
<g id="node1" class="node">
<title>[root] google_storage_bucket.auto&#45;expire (expand)</title>
<polygon fill="none" stroke="black" points="263.06,-108 56.06,-108 56.06,-72 263.06,-72 263.06,-108"/>
<text text-anchor="middle" x="159.56" y="-86.3" font-family="Times,serif" font-size="14.00">google_storage_bucket.auto&#45;expire</text>
</g>
<!-- [root] provider[&quot;registry.terraform.io/hashicorp/google&quot;] -->
<g id="node3" class="node">
<title>[root] provider[&quot;registry.terraform.io/hashicorp/google&quot;]</title>
<polygon fill="none" stroke="black" points="266.56,-36 -0.06,-18 266.56,0 533.17,-18 266.56,-36"/>
<text text-anchor="middle" x="266.56" y="-14.3" font-family="Times,serif" font-size="14.00">provider[&quot;registry.terraform.io/hashicorp/google&quot;]</text>
</g>
<!-- [root] google_storage_bucket.auto&#45;expire (expand)&#45;&gt;[root] provider[&quot;registry.terraform.io/hashicorp/google&quot;] -->
<g id="edge1" class="edge">
<title>[root] google_storage_bucket.auto&#45;expire (expand)&#45;&gt;[root] provider[&quot;registry.terraform.io/hashicorp/google&quot;]</title>
<path fill="none" stroke="black" d="M185.73,-71.88C200.32,-62.33 218.6,-50.37 234.09,-40.24"/>
<polygon fill="black" stroke="black" points="236.39,-42.92 242.84,-34.51 232.56,-37.06 236.39,-42.92"/>
</g>
<!-- [root] google_storage_bucket.sample (expand) -->
<g id="node2" class="node">
<title>[root] google_storage_bucket.sample (expand)</title>
<polygon fill="none" stroke="black" points="466.06,-108 281.06,-108 281.06,-72 466.06,-72 466.06,-108"/>
<text text-anchor="middle" x="373.56" y="-86.3" font-family="Times,serif" font-size="14.00">google_storage_bucket.sample</text>
</g>
<!-- [root] google_storage_bucket.sample (expand)&#45;&gt;[root] provider[&quot;registry.terraform.io/hashicorp/google&quot;] -->
<g id="edge2" class="edge">
<title>[root] google_storage_bucket.sample (expand)&#45;&gt;[root] provider[&quot;registry.terraform.io/hashicorp/google&quot;]</title>
<path fill="none" stroke="black" d="M347.38,-71.88C332.8,-62.33 314.51,-50.37 299.02,-40.24"/>
<polygon fill="black" stroke="black" points="300.55,-37.06 290.27,-34.51 296.72,-42.92 300.55,-37.06"/>
</g>
<!-- [root] provider[&quot;registry.terraform.io/hashicorp/google&quot;] (close) -->
<g id="node4" class="node">
<title>[root] provider[&quot;registry.terraform.io/hashicorp/google&quot;] (close)</title>
<ellipse fill="none" stroke="black" cx="266.56" cy="-162" rx="237.46" ry="18"/>
<text text-anchor="middle" x="266.56" y="-158.3" font-family="Times,serif" font-size="14.00">[root] provider[&quot;registry.terraform.io/hashicorp/google&quot;] (close)</text>
</g>
<!-- [root] provider[&quot;registry.terraform.io/hashicorp/google&quot;] (close)&#45;&gt;[root] google_storage_bucket.auto&#45;expire (expand) -->
<g id="edge3" class="edge">
<title>[root] provider[&quot;registry.terraform.io/hashicorp/google&quot;] (close)&#45;&gt;[root] google_storage_bucket.auto&#45;expire (expand)</title>
<path fill="none" stroke="black" d="M240.65,-144.05C226.69,-134.92 209.28,-123.53 194.17,-113.65"/>
<polygon fill="black" stroke="black" points="195.87,-110.58 185.59,-108.03 192.04,-116.44 195.87,-110.58"/>
</g>
<!-- [root] provider[&quot;registry.terraform.io/hashicorp/google&quot;] (close)&#45;&gt;[root] google_storage_bucket.sample (expand) -->
<g id="edge4" class="edge">
<title>[root] provider[&quot;registry.terraform.io/hashicorp/google&quot;] (close)&#45;&gt;[root] google_storage_bucket.sample (expand)</title>
<path fill="none" stroke="black" d="M292.46,-144.05C306.42,-134.92 323.83,-123.53 338.94,-113.65"/>
<polygon fill="black" stroke="black" points="341.07,-116.44 347.52,-108.03 337.24,-110.58 341.07,-116.44"/>
</g>
<!-- [root] root -->
<g id="node5" class="node">
<title>[root] root</title>
<ellipse fill="none" stroke="black" cx="266.56" cy="-234" rx="47.39" ry="18"/>
<text text-anchor="middle" x="266.56" y="-230.3" font-family="Times,serif" font-size="14.00">[root] root</text>
</g>
<!-- [root] root&#45;&gt;[root] provider[&quot;registry.terraform.io/hashicorp/google&quot;] (close) -->
<g id="edge5" class="edge">
<title>[root] root&#45;&gt;[root] provider[&quot;registry.terraform.io/hashicorp/google&quot;] (close)</title>
<path fill="none" stroke="black" d="M266.56,-215.7C266.56,-207.98 266.56,-198.71 266.56,-190.11"/>
<polygon fill="black" stroke="black" points="270.06,-190.1 266.56,-180.1 263.06,-190.1 270.06,-190.1"/>
</g>
</g>
</svg>
